<?xml version="1.0" encoding="utf-8"?>
<!-- Generator: Adobe Illustrator 23.0.1, SVG Export Plug-In . SVG Version: 6.00 Build 0)  -->
<svg version="1.1" id="Layer_1" xmlns="http://www.w3.org/2000/svg" xmlns:xlink="http://www.w3.org/1999/xlink" x="0px" y="0px"
	 viewBox="0 0 3000 2200" style="enable-background:new 0 0 3000 2200;" xml:space="preserve">
<style type="text/css">
	.st0{fill:#02458B;}
	.st1{fill:#99DBFE;}
</style>
<rect x="-132" y="-38" width="3236" height="2284"/>
<g>
	<g>
		<polygon class="st0" points="1371.9,965.97 1371.9,1097.89 1393.09,1097.89 1393.09,1021.45 1440.96,1021.45 1440.96,1000.03 
			1393.09,1000.03 1393.09,965.97 		"/>
		<rect x="1512.13" y="923.36" class="st0" width="21.43" height="55.72"/>
		<path class="st0" d="M1294.93,1010.62c0-15.77,1.79-31.14,5.18-45.91c1.56-6.77,3.45-13.41,5.66-19.92h181.85v-21.43h-173.18
			h-23.98c-2.92,6.97-5.49,14.12-7.7,21.43c-1.99,6.52-3.68,13.16-5.08,19.92c-3.05,14.84-4.66,30.19-4.66,45.91
			c0,122.56,97.63,222.76,219.21,226.88v-21.96C1382.74,1211.43,1294.93,1121.09,1294.93,1010.62z"/>
		<path class="st1" d="M1500,783.62c-86.42,0-161.73,48.55-200.05,119.82h25.3c36.12-58.67,100.93-97.88,174.76-97.88
			c113.06,0,205.05,91.99,205.05,205.05c0,94.59-64.35,174.41-151.57,197.98c-6.51,1.78-13.16,3.22-19.92,4.35v-190.78h73.1v75.72
			h21.43V923.36h-21.43v77.38h-94.52v214.58v21.98c7.24-0.36,14.39-1.1,21.43-2.14c6.74-1.01,13.38-2.31,19.92-3.88
			c99.44-24.12,173.51-113.89,173.51-220.65C1726.99,885.45,1625.16,783.62,1500,783.62z"/>
	</g>
	<g>
		<path class="st0" d="M1331.16,1362.46c8.6,5,12.9,12.45,12.9,22.35v5.77c0,7.1-2.53,13.17-7.57,18.22
			c-5.05,5.05-11.15,7.57-18.3,7.57h-65.99v-11.47h65.99c3.95,0,7.35-1.4,10.2-4.2c2.8-2.8,4.2-6.17,4.2-10.12v-5.77
			c0-3.95-1.4-7.32-4.2-10.12c-2.85-2.8-6.25-4.2-10.2-4.2h-65.99v-11.47h60.29c3.95,0,7.32-1.42,10.12-4.28
			c2.8-2.8,4.2-6.17,4.2-10.12c0-3.95-1.4-7.32-4.2-10.12c-2.8-2.8-6.18-4.2-10.12-4.2h-60.29v-11.47h60.29
			c7.1,0,13.17,2.53,18.22,7.57c5.05,5.05,7.57,11.13,7.57,18.22C1338.28,1351.51,1335.91,1357.46,1331.16,1362.46z"/>
		<path class="st0" d="M1386.77,1318.81h91.87v11.47h-91.87V1318.81z M1386.77,1359.01h91.87v11.47h-91.87V1359.01z M1386.77,1404.9
			h91.87v11.47h-91.87V1404.9z"/>
		<path class="st0" d="M1613.23,1318.81v11.47h-40.2v86.09h-11.47v-86.09h-40.2v-11.47H1613.23z"/>
		<path class="st0" d="M1678.89,1330.28c-3.15,0-5.85,1.13-8.1,3.37c-2.25,2.25-3.37,4.95-3.37,8.1v5.7c0,3.2,1.13,5.92,3.37,8.17
			c2.25,2.25,4.95,3.38,8.1,3.38h45.97c6.3,0,11.7,2.22,16.2,6.67c4.5,4.5,6.75,9.93,6.75,16.27v11.47c0,6.3-2.25,11.7-6.75,16.2
			c-4.5,4.5-9.9,6.75-16.2,6.75h-68.92v-11.47h68.92c3.15,0,5.85-1.13,8.1-3.38c2.25-2.25,3.37-4.95,3.37-8.1v-11.47
			c0-3.2-1.13-5.9-3.37-8.1c-2.25-2.25-4.95-3.38-8.1-3.38h-45.97c-6.3,0-11.7-2.25-16.2-6.75c-4.5-4.5-6.75-9.92-6.75-16.27v-5.7
			c0-6.35,2.25-11.77,6.75-16.27c4.5-4.45,9.9-6.67,16.2-6.67h68.92v11.47H1678.89z"/>
	</g>
</g>
</svg>
